<svg xmlns="http://www.w3.org/2000/svg" viewBox="0 0 376.54 96.75"><defs><style>.cls-1,.cls-2{fill:#9486e0;isolation:isolate;}.cls-1,.cls-2,.cls-3,.cls-4,.cls-5{fill-rule:evenodd;}.cls-1{opacity:0.3;}.cls-2{opacity:0.7;}.cls-3,.cls-4,.cls-5{fill:#8bcdea;}.cls-3{opacity:0.6;}.cls-4{opacity:0.3;}.cls-6{fill:#fff;}</style></defs><g id="Layer_2" data-name="Layer 2"><g id="Layer_1-2" data-name="Layer 1"><path class="cls-1" d="M4.81,82.09A49.19,49.19,0,0,1,18.88,58.94c12.35,1.23,23.27-4.33,29.32-8.37-5.71,4.5-14.37,13.18-17,25.31A49,49,0,0,1,4.81,82.09Z"/><path class="cls-2" d="M4.81,14.82S19,13.9,31.18,21c2.65,12.13,11.31,20.8,17,25.3-6.06-4-17-9.6-29.33-8.35C8.3,28.56,4.81,14.82,4.81,14.82Z"/><path class="cls-3" d="M0,48.48c14.56-12,33.14-11.3,47.81,0C33.36,60.44,14.67,59.78,0,48.48Z"/><path class="cls-4" d="M35.28,96.75A37.2,37.2,0,0,1,50.06,51.28,37.17,37.17,0,0,1,35.28,96.75Z"/><path class="cls-5" d="M35,0A37.21,37.21,0,0,1,49.79,45.47,37.17,37.17,0,0,1,35,0Z"/><path class="cls-6" d="M68.4,60h2.48V38.93H64.7v4.22H61V36H85.2v7.15H81.54V38.93H74.39V60h2.79V63.1H68.4Z"/><path class="cls-6" d="M104.29,40.07h7.47v2.61h-2.19V60.49h2.19V63.1h-7.47V60.49h2.31V52.21H93.27v8.28h2.31V63.1H88.11V60.49h2.18V42.68H88.11V40.07h7.47v2.61H93.27v7H106.6v-7h-2.31Z"/><path class="cls-6" d="M116.11,40.07h16.5v6.52h-3.12V42.7h-8.22v7.36h6.92v2.62h-6.92v7.81h8.22V56.6h3.12v6.5h-16.5V60.49h2.19V42.7h-2.19Z"/><path class="cls-6" d="M144,36h19.41v7.67h-3.66V39.1h-9.67v8.66h8.13v3.08h-8.13V60h9.67V55.45h3.66V63.1H144V60h2.57V39.1H144Z"/><path class="cls-6" d="M166.64,40.07h7.48V42.7h-2.31V60.49h7.94a1.07,1.07,0,0,0,.49-.12,1.6,1.6,0,0,0,.44-.29,1.46,1.46,0,0,0,.32-.42,1.07,1.07,0,0,0,.12-.48v-2.9H184V63.1H166.64V60.49h2.19V42.7h-2.19Z"/><path class="cls-6" d="M186.33,40.07h7.35V42.7H191.5V60.49h2.18V63.1h-7.35V60.49h2.19V42.7h-2.19Z"/><path class="cls-6" d="M198.14,40.07h7.46V42.7h-1.93V60.49a2.57,2.57,0,0,1-.16.78,8.26,8.26,0,0,1-.41.95c-.17.33-.37.67-.59,1s-.44.69-.67,1c-.53.78-1.14,1.6-1.82,2.45l-2.61-.23c.6-.91,1.13-1.78,1.61-2.61.2-.36.4-.72.59-1.09s.36-.73.52-1.07.27-.67.37-1a2.47,2.47,0,0,0,.14-.77V42.7h-2.5Z"/><path class="cls-6" d="M222,60.49h1.91l-1.82-5.23h-8.86l-1.77,5.23h2.37V63.1h-7.48V60.49h2l7.17-20.42H220l7.16,20.42h2.3V63.1H222Zm-7.9-7.75h7.11l-3.59-10.3Z"/><path class="cls-6" d="M248,40.07h7.47v2.61h-2.18V60.49h2.18V63.1H248V60.49h2.31V52.21H237v8.28h2.3V63.1h-7.47V60.49H234V42.68h-2.19V40.07h7.47v2.61H237v7h13.32v-7H248Z"/><path class="cls-6" d="M273.75,60h2.49V38.93h-6.19v4.22h-3.66V36h24.16v7.15h-3.66V38.93h-7.15V60h2.79V63.1h-8.78Z"/><path class="cls-6" d="M293.46,40.07h9.59a9.44,9.44,0,0,1,2.83.4,6.37,6.37,0,0,1,2.25,1.19,5.32,5.32,0,0,1,1.48,2,6.33,6.33,0,0,1,.53,2.69,4.91,4.91,0,0,1-.31,1.71,6.25,6.25,0,0,1-.86,1.56,7,7,0,0,1-1.32,1.29,6.18,6.18,0,0,1-1.65.86,3.41,3.41,0,0,1,.76.48,4.42,4.42,0,0,1,.73.76,6.31,6.31,0,0,1,.63,1,6.78,6.78,0,0,1,.44,1.22l1.28,5h2l0,2.89h-4.48l-1.72-7a5.46,5.46,0,0,0-1.44-2.78,3.73,3.73,0,0,0-2.63-.88h-3v8.05h2.31V63.1h-7.48V60.49h2.19V42.7h-2.19Zm5.17,2.63v7.24h4.42a5.41,5.41,0,0,0,1.59-.22,3.49,3.49,0,0,0,1.24-.69,3.14,3.14,0,0,0,.82-1.13,3.82,3.82,0,0,0,.3-1.57,3.47,3.47,0,0,0-1-2.68,4.74,4.74,0,0,0-3.28-.95Z"/><path class="cls-6" d="M315.16,40.07h7.46V42.7h-2.36V53.42a10.83,10.83,0,0,0,.44,3.29,5.87,5.87,0,0,0,1.19,2.22,4.58,4.58,0,0,0,1.83,1.25,6.38,6.38,0,0,0,2.32.4,8,8,0,0,0,2.4-.35,4.33,4.33,0,0,0,1.87-1.18,5.59,5.59,0,0,0,1.22-2.2,11.56,11.56,0,0,0,.43-3.43V42.7h-2.49V40.07h7.46V42.7h-2.05V53.09a13.1,13.1,0,0,1-.69,4.42,9.47,9.47,0,0,1-1.9,3.24,7.94,7.94,0,0,1-2.82,2,9.06,9.06,0,0,1-3.5.68,8.82,8.82,0,0,1-3.41-.67,7.79,7.79,0,0,1-2.76-2,9.47,9.47,0,0,1-1.86-3.16,12.45,12.45,0,0,1-.67-4.26V42.7h-2.11Z"/><path class="cls-6" d="M350.48,44.32a3.67,3.67,0,0,0-1.07-1,5.05,5.05,0,0,0-1.28-.55,5.24,5.24,0,0,0-1.4-.19,6.77,6.77,0,0,0-2,.27,4.05,4.05,0,0,0-1.44.72,3.1,3.1,0,0,0-.86,1.06,3,3,0,0,0-.28,1.28,3.22,3.22,0,0,0,.35,1.62,3,3,0,0,0,.91,1,4.47,4.47,0,0,0,1.2.59l1.27.42,3.07,1a13.9,13.9,0,0,1,2.44,1,6.73,6.73,0,0,1,1.77,1.33,5.2,5.2,0,0,1,1.09,1.77,6.84,6.84,0,0,1,.37,2.32,6.05,6.05,0,0,1-.59,2.65,6.41,6.41,0,0,1-1.63,2.11,7.69,7.69,0,0,1-2.5,1.4,9.55,9.55,0,0,1-3.18.51,10,10,0,0,1-3-.4,6.71,6.71,0,0,1-2.12-1.08,5.67,5.67,0,0,1-1.37-1.54,8.09,8.09,0,0,1-.81-1.78h-1.15V56.19H342a5.6,5.6,0,0,0,.36,2.38,3.23,3.23,0,0,0,1,1.17,4.52,4.52,0,0,0,1.52.69,7.31,7.31,0,0,0,1.94.24,6.66,6.66,0,0,0,1.86-.24,4.07,4.07,0,0,0,1.41-.71,3.14,3.14,0,0,0,.9-1.12,3.44,3.44,0,0,0,.31-1.5,3.07,3.07,0,0,0-.38-1.57,3.89,3.89,0,0,0-1-1.1,5.43,5.43,0,0,0-1.33-.75c-.48-.19-.94-.36-1.39-.5l-3.33-.94a9.69,9.69,0,0,1-2-.85,6.25,6.25,0,0,1-1.56-1.26,5.33,5.33,0,0,1-1-1.74,7.06,7.06,0,0,1-.35-2.31,5.88,5.88,0,0,1,.52-2.47,5.62,5.62,0,0,1,1.52-2,7.15,7.15,0,0,1,2.45-1.36,10.25,10.25,0,0,1,3.32-.5,8.55,8.55,0,0,1,2.27.29,7.31,7.31,0,0,1,1.89.82,6.38,6.38,0,0,1,1.48,1.26,7.25,7.25,0,0,1,1.09,1.61h1.14v2.62H351A3.39,3.39,0,0,0,350.48,44.32Z"/><path class="cls-6" d="M362.26,60.49h2.11V42.56h-5.26v3.59H356V40.07h20.54v6.08h-3.12V42.56h-6.07V60.49h2.37V63.1h-7.46Z"/></g></g></svg>