<svg xmlns="http://www.w3.org/2000/svg" viewBox="0 0 628.02 96.75"><defs><style>.cls-1,.cls-2{fill:#9486e0;isolation:isolate;}.cls-1,.cls-2,.cls-3,.cls-4,.cls-5{fill-rule:evenodd;}.cls-1{opacity:0.3;}.cls-2{opacity:0.7;}.cls-3,.cls-4,.cls-5{fill:#8bcdea;}.cls-3{opacity:0.6;}.cls-4{opacity:0.3;}.cls-6{fill:#585858;}</style></defs><g id="Layer_2" data-name="Layer 2"><g id="Layer_1-2" data-name="Layer 1"><path class="cls-1" d="M4.81,82.09A49.19,49.19,0,0,1,18.88,58.94c12.35,1.23,23.27-4.33,29.32-8.37-5.71,4.5-14.37,13.18-17,25.31A49,49,0,0,1,4.81,82.09Z"/><path class="cls-2" d="M4.81,14.82S19,13.9,31.18,21c2.65,12.13,11.31,20.8,17,25.3-6.06-4-17-9.6-29.33-8.35C8.3,28.56,4.81,14.82,4.81,14.82Z"/><path class="cls-3" d="M0,48.48c14.56-12,33.14-11.3,47.81,0C33.36,60.44,14.67,59.78,0,48.48Z"/><path class="cls-4" d="M35.28,96.75A37.2,37.2,0,0,1,50.06,51.28,37.17,37.17,0,0,1,35.28,96.75Z"/><path class="cls-5" d="M35,0A37.21,37.21,0,0,1,49.79,45.47,37.17,37.17,0,0,1,35,0Z"/><path class="cls-6" d="M86.29,66.23h4.37V29.15H79.79v7.42H73.35V24h42.48V36.57h-6.44V29.15H96.82V66.23h4.9v5.41H86.29Z"/><path class="cls-6" d="M149.39,31.15h13.14v4.59h-3.85V67h3.85v4.6H149.39V67h4.06V52.49H130V67h4.06v4.6H120.94V67h3.85V35.74h-3.85V31.15h13.14v4.59H130V48h23.43V35.74h-4.06Z"/><path class="cls-6" d="M170.17,31.15h29V42.61H193.7V35.77H179.25V48.72h12.16v4.6H179.25V67H193.7V60.21h5.48V71.64h-29V67H174V35.77h-3.85Z"/><path class="cls-6" d="M219.27,24H253.4V37.48H247v-8H230V44.68h14.29v5.4H230V66.23h17v-8h6.44V71.64H219.27V66.23h4.53V29.44h-4.53Z"/><path class="cls-6" d="M259,31.15h13.14v4.62h-4.06V67h14a2,2,0,0,0,.86-.2,2.82,2.82,0,0,0,.77-.52,2.63,2.63,0,0,0,.56-.73,1.86,1.86,0,0,0,.21-.84v-5.1h5.08v12H259V67h3.84V35.77H259Z"/><path class="cls-6" d="M293.63,31.15h12.92v4.62h-3.84V67h3.84v4.6H293.63V67h3.84V35.77h-3.84Z"/><path class="cls-6" d="M314.38,31.15h13.11v4.62H324.1V67a4.12,4.12,0,0,1-.28,1.38,14.26,14.26,0,0,1-.72,1.67,18.66,18.66,0,0,1-1,1.8q-.58.93-1.17,1.8c-.95,1.38-2,2.81-3.21,4.31l-4.59-.4q1.57-2.41,2.83-4.6c.36-.62.7-1.26,1-1.91s.64-1.28.91-1.88a17,17,0,0,0,.65-1.7,4.47,4.47,0,0,0,.26-1.35V35.77h-4.41Z"/><path class="cls-6" d="M356.37,67h3.36l-3.2-9.18H341L337.83,67H342v4.6H328.86V67h3.52L345,31.15h7.88L365.45,67h4.06v4.6H356.37ZM342.48,53.42H355l-6.31-18.11Z"/><path class="cls-6" d="M402,31.15h13.14v4.59h-3.84V67h3.84v4.6H402V67h4.06V52.49H382.68V67h4.06v4.6H373.6V67h3.84V35.74H373.6V31.15h13.14v4.59h-4.06V48H406.1V35.74H402Z"/><path class="cls-6" d="M447.32,66.23h4.37V29.15H440.81v7.42h-6.44V24h42.49V36.57h-6.45V29.15H457.84V66.23h4.91v5.41H447.32Z"/><path class="cls-6" d="M482,31.15h16.85a16.79,16.79,0,0,1,5,.7,11.4,11.4,0,0,1,3.95,2.09,9.39,9.39,0,0,1,2.61,3.43,11.38,11.38,0,0,1,.93,4.73,8.5,8.5,0,0,1-.55,3,10.14,10.14,0,0,1-1.52,2.75,11.52,11.52,0,0,1-2.31,2.26A10.36,10.36,0,0,1,504,51.63a6.73,6.73,0,0,1,1.35.84,7.82,7.82,0,0,1,1.28,1.34,10.66,10.66,0,0,1,1.1,1.79,10.77,10.77,0,0,1,.78,2.15l2.25,8.81h3.5l0,5.08h-7.88l-3-12.31a9.65,9.65,0,0,0-2.52-4.88,6.59,6.59,0,0,0-4.63-1.56h-5.21V67h4.06v4.6H482V67h3.84V35.77H482Zm9.08,4.62V48.51h7.77a9.5,9.5,0,0,0,2.79-.4,6.11,6.11,0,0,0,2.19-1.2,5.57,5.57,0,0,0,1.44-2,6.84,6.84,0,0,0,.52-2.77,6.09,6.09,0,0,0-1.81-4.7c-1.21-1.12-3.14-1.68-5.77-1.68Z"/><path class="cls-6" d="M520.11,31.15h13.11v4.62h-4.14V54.63a19.13,19.13,0,0,0,.77,5.78,10.66,10.66,0,0,0,2.1,3.9,8,8,0,0,0,3.21,2.2,11.37,11.37,0,0,0,4.07.7,13.74,13.74,0,0,0,4.22-.62,7.66,7.66,0,0,0,3.3-2.07,9.84,9.84,0,0,0,2.14-3.87,20.24,20.24,0,0,0,.76-6V35.77h-4.38V31.15h13.11v4.62h-3.6V54a23,23,0,0,1-1.22,7.77,16.63,16.63,0,0,1-3.32,5.69,13.79,13.79,0,0,1-5,3.48,15.71,15.71,0,0,1-6.14,1.2,15.36,15.36,0,0,1-6-1.18,13.6,13.6,0,0,1-4.86-3.45A16.38,16.38,0,0,1,525,62a21.92,21.92,0,0,1-1.19-7.49V35.77h-3.71Z"/><path class="cls-6" d="M582.21,38.63a6.67,6.67,0,0,0-1.88-1.81,8.6,8.6,0,0,0-2.26-1,9.46,9.46,0,0,0-2.46-.33,12.18,12.18,0,0,0-3.55.46,7.73,7.73,0,0,0-2.52,1.27A5.25,5.25,0,0,0,568,39.13a5.18,5.18,0,0,0-.51,2.25,5.61,5.61,0,0,0,.63,2.84A5.23,5.23,0,0,0,569.74,46a8,8,0,0,0,2.12,1c.77.26,1.52.5,2.23.75l5.4,1.77a24.86,24.86,0,0,1,4.28,1.76,11.8,11.8,0,0,1,3.12,2.34,9.08,9.08,0,0,1,1.9,3.11,11.58,11.58,0,0,1,.66,4.09,10.48,10.48,0,0,1-1,4.64,11.24,11.24,0,0,1-2.87,3.71,13.52,13.52,0,0,1-4.39,2.48,17,17,0,0,1-5.6.89,17.71,17.71,0,0,1-5.34-.71,11.58,11.58,0,0,1-3.73-1.9,10,10,0,0,1-2.42-2.7,15.3,15.3,0,0,1-1.41-3.13h-2V59.49h6.73a10,10,0,0,0,.63,4.19,5.65,5.65,0,0,0,1.75,2A7.64,7.64,0,0,0,572.41,67a13,13,0,0,0,3.42.42,11.77,11.77,0,0,0,3.27-.43,7.15,7.15,0,0,0,2.48-1.25,5.48,5.48,0,0,0,1.58-2,6.15,6.15,0,0,0,.55-2.63,5.34,5.34,0,0,0-.68-2.77,6.86,6.86,0,0,0-1.75-1.93,10.33,10.33,0,0,0-2.34-1.31c-.85-.34-1.66-.63-2.45-.88l-5.85-1.66a17.4,17.4,0,0,1-3.51-1.49,10.41,10.41,0,0,1-2.72-2.22,9.23,9.23,0,0,1-1.75-3.06,12.18,12.18,0,0,1-.62-4.05,10.6,10.6,0,0,1,.91-4.35,10.21,10.21,0,0,1,2.67-3.55,12.86,12.86,0,0,1,4.32-2.39,18,18,0,0,1,5.83-.87,15,15,0,0,1,4,.51,12.19,12.19,0,0,1,3.31,1.43,11.6,11.6,0,0,1,2.62,2.21,13.79,13.79,0,0,1,1.91,2.85h2v4.59h-6.55A6,6,0,0,0,582.21,38.63Z"/><path class="cls-6" d="M602.91,67h3.71V35.53h-9.24v6.3h-5.47V31.15H628V41.83h-5.48v-6.3H611.86V67H616v4.6H602.91Z"/></g></g></svg>