<svg xmlns="http://www.w3.org/2000/svg" viewBox="0 0 52.77 96.75"><defs><style>.cls-1,.cls-2{fill:#9486e0;isolation:isolate;}.cls-1,.cls-2,.cls-3,.cls-4,.cls-5{fill-rule:evenodd;}.cls-1{opacity:0.3;}.cls-2{opacity:0.7;}.cls-3,.cls-4,.cls-5{fill:#8bcdea;}.cls-3{opacity:0.6;}.cls-4{opacity:0.3;}</style></defs><g id="Layer_2" data-name="Layer 2"><g id="Layer_1-2" data-name="Layer 1"><path class="cls-1" d="M4.81,82.09A49.19,49.19,0,0,1,18.88,58.94c12.35,1.23,23.27-4.33,29.32-8.37-5.71,4.5-14.37,13.18-17,25.31A49,49,0,0,1,4.81,82.09Z"/><path class="cls-2" d="M4.81,14.82S19,13.9,31.18,21c2.65,12.13,11.31,20.8,17,25.3-6.06-4-17-9.6-29.33-8.35C8.3,28.56,4.81,14.82,4.81,14.82Z"/><path class="cls-3" d="M0,48.48c14.56-12,33.14-11.3,47.81,0C33.36,60.44,14.67,59.78,0,48.48Z"/><path class="cls-4" d="M35.28,96.75A37.2,37.2,0,0,1,50.06,51.28,37.17,37.17,0,0,1,35.28,96.75Z"/><path class="cls-5" d="M35,0A37.21,37.21,0,0,1,49.79,45.47,37.17,37.17,0,0,1,35,0Z"/></g></g></svg>